<?xml version="1.0" encoding="UTF-8" standalone="no"?>
<svg
   xmlns:dc="http://purl.org/dc/elements/1.1/"
   xmlns:cc="http://creativecommons.org/ns#"
   xmlns:rdf="http://www.w3.org/1999/02/22-rdf-syntax-ns#"
   xmlns:svg="http://www.w3.org/2000/svg"
   xmlns="http://www.w3.org/2000/svg"
   xmlns:sodipodi="http://sodipodi.sourceforge.net/DTD/sodipodi-0.dtd"
   xmlns:inkscape="http://www.inkscape.org/namespaces/inkscape"
   inkscape:version="1.0rc1 (09960d6f05, 2020-04-09)"
   sodipodi:docname="addIcon.svg"
   xml:space="preserve"
   style="enable-background:new 0 0 457.47 457.469;"
   viewBox="0 0 457.47 457.469"
   height="457.469px"
   width="457.47px"
   y="0px"
   x="0px"
   id="Capa_1"
   version="1.1"><metadata
   id="metadata41"><rdf:RDF><cc:Work
       rdf:about=""><dc:format>image/svg+xml</dc:format><dc:type
         rdf:resource="http://purl.org/dc/dcmitype/StillImage" /></cc:Work></rdf:RDF></metadata><defs
   id="defs39" /><sodipodi:namedview
   inkscape:current-layer="Capa_1"
   inkscape:window-maximized="0"
   inkscape:window-y="0"
   inkscape:window-x="0"
   inkscape:cy="228.7345"
   inkscape:cx="228.735"
   inkscape:zoom="0.51588082"
   showgrid="false"
   id="namedview37"
   inkscape:window-height="480"
   inkscape:window-width="876"
   inkscape:pageshadow="2"
   inkscape:pageopacity="0"
   guidetolerance="10"
   gridtolerance="10"
   objecttolerance="10"
   borderopacity="1"
   bordercolor="#666666"
   pagecolor="#ffffff" />
<g
   style="fill:#ff0000"
   id="g4">
	<path
   style="fill:#ff0000"
   id="path2"
   d="M228.734,0C102.41,0,0,102.41,0,228.735C0,355.06,102.41,457.469,228.734,457.469   c126.325,0,228.735-102.409,228.735-228.734C457.47,102.41,355.06,0,228.734,0z M359.268,265.476h-97.326v97.315   c0,16.668-13.506,30.186-30.181,30.186c-16.668,0-30.189-13.518-30.189-30.186v-97.315h-97.309   c-16.674,0-30.192-13.512-30.192-30.187c0-16.674,13.518-30.188,30.192-30.188h97.315v-97.31c0-16.674,13.515-30.183,30.189-30.183   c16.675,0,30.187,13.509,30.187,30.183v97.315h97.314c16.669,0,30.192,13.515,30.192,30.188   C389.46,251.97,375.937,265.476,359.268,265.476z" />
</g>
<g
   id="g6">
</g>
<g
   id="g8">
</g>
<g
   id="g10">
</g>
<g
   id="g12">
</g>
<g
   id="g14">
</g>
<g
   id="g16">
</g>
<g
   id="g18">
</g>
<g
   id="g20">
</g>
<g
   id="g22">
</g>
<g
   id="g24">
</g>
<g
   id="g26">
</g>
<g
   id="g28">
</g>
<g
   id="g30">
</g>
<g
   id="g32">
</g>
<g
   id="g34">
</g>
</svg>
